<?xml version="1.0" encoding="UTF-8" standalone="no"?>
<svg width="161px" height="23px" viewBox="0 0 161 23" version="1.1" xmlns="http://www.w3.org/2000/svg" xmlns:xlink="http://www.w3.org/1999/xlink">
    <!-- Generator: Sketch 39.1 (31720) - http://www.bohemiancoding.com/sketch -->
    <title>GitHub Developer</title>
    <desc>Who's awesome? You're awesome.</desc>
    <defs></defs>
    <g id="New" stroke="none" stroke-width="1" fill="none" fill-rule="evenodd">
        <g id="Page-Template-Copy-8" transform="translate(-161.000000, -27.000000)">
            <g id="Group-3">
                <g id="Group-7" transform="translate(161.000000, 27.000000)">
                    <path d="M75.859,17 C81.004,17 82.495,13.598 82.495,9.125 C82.495,4.652 81.004,1.25 75.859,1.25 L71.575,1.25 L71.575,17 L75.859,17 Z M73.003,2.573 L75.943,2.573 C79.723,2.573 80.983,5.345 80.983,9.125 C80.983,12.905 79.723,15.677 75.943,15.677 L73.003,15.677 L73.003,2.573 Z M84.91,11.75 C84.91,14.774 85.771,17.21 89.32,17.21 C90.349,17.21 91.609,17.105 92.785,16.58 L92.785,15.32 C91.756,15.761 90.832,15.908 89.32,15.908 C86.947,15.908 86.464,14.249 86.38,12.422 L93.31,12.422 L93.31,11.75 C93.31,8.726 92.89,6.29 89.32,6.29 C85.771,6.29 84.91,8.726 84.91,11.75 L84.91,11.75 Z M89.32,7.592 C91.735,7.592 91.84,9.356 91.84,11.225 L86.38,11.225 C86.443,9.335 86.884,7.592 89.32,7.592 L89.32,7.592 Z M94.885,6.5 L98.98,17.21 L100.03,17.21 L104.125,6.5 L102.508,6.5 L99.505,15.11 L96.502,6.5 L94.885,6.5 Z M105.7,11.75 C105.7,14.774 106.561,17.21 110.11,17.21 C111.139,17.21 112.399,17.105 113.575,16.58 L113.575,15.32 C112.546,15.761 111.622,15.908 110.11,15.908 C107.737,15.908 107.254,14.249 107.17,12.422 L114.1,12.422 L114.1,11.75 C114.1,8.726 113.68,6.29 110.11,6.29 C106.561,6.29 105.7,8.726 105.7,11.75 L105.7,11.75 Z M110.11,7.592 C112.525,7.592 112.63,9.356 112.63,11.225 L107.17,11.225 C107.233,9.335 107.674,7.592 110.11,7.592 L110.11,7.592 Z M119.266,17.21 L119.266,16.013 C118.615,16.013 118.384,15.803 118.384,15.068 L118.384,1.25 L116.956,1.25 L116.956,14.9 C116.956,16.58 117.754,17.21 119.266,17.21 L119.266,17.21 Z M130.27,11.75 C130.27,8.537 129.472,6.29 125.86,6.29 C122.269,6.29 121.45,8.537 121.45,11.75 C121.45,14.963 122.269,17.21 125.86,17.21 C129.472,17.21 130.27,14.963 130.27,11.75 L130.27,11.75 Z M128.8,11.75 C128.8,14.123 128.59,15.908 125.86,15.908 C123.088,15.908 122.92,14.123 122.92,11.75 C122.92,9.377 123.088,7.592 125.86,7.592 C128.59,7.592 128.8,9.377 128.8,11.75 L128.8,11.75 Z M137.2,17.21 C140.581,17.21 141.505,14.774 141.505,11.75 C141.505,8.726 140.581,6.29 137.2,6.29 C136.066,6.29 135.016,6.668 133.924,7.361 L133.609,6.5 L132.79,6.5 L132.79,22.25 L134.26,22.25 L134.26,16.349 C135.163,16.937 136.234,17.21 137.2,17.21 L137.2,17.21 Z M137.2,15.908 C135.835,15.908 135.079,15.677 134.26,15.236 L134.26,8.264 C135.079,7.823 135.835,7.592 137.2,7.592 C139.72,7.592 140.035,9.671 140.035,11.75 C140.035,13.829 139.72,15.908 137.2,15.908 L137.2,15.908 Z M143.815,11.75 C143.815,14.774 144.676,17.21 148.225,17.21 C149.254,17.21 150.514,17.105 151.69,16.58 L151.69,15.32 C150.661,15.761 149.737,15.908 148.225,15.908 C145.852,15.908 145.369,14.249 145.285,12.422 L152.215,12.422 L152.215,11.75 C152.215,8.726 151.795,6.29 148.225,6.29 C144.676,6.29 143.815,8.726 143.815,11.75 L143.815,11.75 Z M148.225,7.592 C150.64,7.592 150.745,9.356 150.745,11.225 L145.285,11.225 C145.348,9.335 145.789,7.592 148.225,7.592 L148.225,7.592 Z M160.51,6.395 C160.111,6.332 159.733,6.29 159.25,6.29 C158.074,6.29 156.856,6.647 155.869,7.382 L155.554,6.5 L154.735,6.5 L154.735,17 L156.205,17 L156.205,8.264 C156.982,7.823 157.822,7.592 159.25,7.592 C159.775,7.592 160.195,7.655 160.51,7.76 L160.51,6.395 Z" id="Developer" fill="#B3BCC7"></path>
                </g>
            </g>
        </g>
    </g>
</svg>
