<?xml version="1.0" encoding="UTF-8" standalone="no"?>
<svg width="161px" height="23px" viewBox="0 0 161 23" version="1.1" xmlns="http://www.w3.org/2000/svg" xmlns:xlink="http://www.w3.org/1999/xlink">
    <!-- Generator: Sketch 39.1 (31720) - http://www.bohemiancoding.com/sketch -->
    <title>GitHub Developer</title>
    <desc>Who's awesome? You're awesome.</desc>
    <defs></defs>
    <g id="New" stroke="none" stroke-width="1" fill="none" fill-rule="evenodd">
        <g id="Page-Template-Copy-8" transform="translate(-161.000000, -27.000000)">
            <g id="Group-3">
                <g id="Group-7" transform="translate(161.000000, 27.000000)">
                    <path d="M26.6832,14.443344 L26.6544,14.443344 C26.66736,14.443344 26.676,14.456304 26.68896,14.459184 C26.6904,14.459184 26.69616,14.457744 26.6976,14.457744 L26.6832,14.443344 Z M26.68896,14.459184 C26.55504,14.460624 26.21808,14.529744 25.8624,14.529744 C24.7392,14.529744 24.3504,14.011344 24.3504,13.334544 L24.3504,8.827344 L26.64,8.827344 C26.7696,8.827344 26.8704,8.712144 26.8704,8.553744 L26.8704,6.105744 C26.8704,5.976144 26.7552,5.860944 26.64,5.860944 L24.3504,5.860944 L24.3504,2.822544 C24.3504,2.707344 24.2784,2.635344 24.1488,2.635344 L21.0384,2.635344 C20.9088,2.635344 20.8368,2.707344 20.8368,2.822544 L20.8368,5.947344 C20.8368,5.947344 19.2672,6.336144 19.1664,6.350544 C19.0512,6.379344 18.9792,6.480144 18.9792,6.595344 L18.9792,8.553744 C18.9792,8.712144 19.0944,8.827344 19.224,8.827344 L20.8224,8.827344 L20.8224,13.550544 C20.8224,17.064144 23.2704,17.424144 24.9408,17.424144 C25.704,17.424144 26.6256,17.179344 26.7696,17.107344 C26.856,17.078544 26.8992,16.977744 26.8992,16.876944 L26.8992,14.716944 C26.8992,14.574384 26.80128,14.479344 26.68896,14.459184 L26.68896,14.459184 Z M60.8112,11.289744 C60.8112,8.683344 59.76,8.337744 58.6512,8.452944 C57.7872,8.510544 57.096,8.942544 57.096,8.942544 L57.096,14.011344 C57.096,14.011344 57.8016,14.500944 58.8528,14.529744 C60.336,14.572944 60.8112,14.040144 60.8112,11.289744 L60.8112,11.289744 Z M64.3104,11.059344 C64.3104,15.998544 62.712,17.409744 59.9184,17.409744 C57.5568,17.409744 56.2896,16.214544 56.2896,16.214544 C56.2896,16.214544 56.232,16.876944 56.16,16.963344 C56.1168,17.049744 56.0448,17.078544 55.9584,17.078544 L53.8272,17.078544 C53.6832,17.078544 53.5536,16.963344 53.5536,16.833744 L53.5824,0.835344 C53.5824,0.705744 53.6976,0.590544 53.8272,0.590544 L56.8944,0.590544 C57.024,0.590544 57.1392,0.705744 57.1392,0.835344 L57.1392,6.264144 C57.1392,6.264144 58.32,5.500944 60.048,5.500944 L60.0336,5.472144 C61.7616,5.472144 64.3104,6.120144 64.3104,11.059344 L64.3104,11.059344 Z M51.7536,5.860944 L51.7392,5.860944 L48.7296,5.860944 C48.5712,5.860944 48.4848,5.976144 48.4848,6.134544 L48.4848,13.968144 C48.4848,13.968144 47.6928,14.529744 46.6128,14.529744 C45.5328,14.529744 45.216,14.040144 45.216,12.960144 L45.216,6.120144 C45.216,5.990544 45.1008,5.875344 44.9712,5.875344 L41.8896,5.875344 C41.76,5.875344 41.6448,5.990544 41.6448,6.120144 L41.6448,13.478544 C41.6448,16.646544 43.416,17.438544 45.8496,17.438544 C47.8512,17.438544 49.4784,16.329744 49.4784,16.329744 C49.4784,16.329744 49.5504,16.891344 49.5936,16.977744 C49.6224,17.049744 49.7232,17.107344 49.824,17.107344 L51.7536,17.107344 C51.912,17.107344 51.9984,16.992144 51.9984,16.862544 L52.0272,6.105744 C52.0272,5.976144 51.912,5.860944 51.7536,5.860944 L51.7536,5.860944 Z M17.6256,5.846544 L14.5584,5.846544 C14.4288,5.846544 14.3136,5.976144 14.3136,6.134544 L14.3136,16.704144 C14.3136,16.992144 14.5008,17.092944 14.7456,17.092944 L17.5104,17.092944 C17.7984,17.092944 17.8704,16.963344 17.8704,16.704144 L17.8704,6.105744 L17.8704,6.091344 C17.8704,5.961744 17.7552,5.846544 17.6256,5.846544 L17.6256,5.846544 Z M16.1136,0.979344 C15.0048,0.979344 14.1264,1.857744 14.1264,2.966544 C14.1264,4.075344 15.0048,4.953744 16.1136,4.953744 C17.1936,4.953744 18.072,4.075344 18.072,2.966544 C18.072,1.857744 17.1936,0.979344 16.1136,0.979344 L16.1136,0.979344 Z M39.8592,0.619344 L36.8208,0.619344 C36.6912,0.619344 36.576,0.734544 36.576,0.864144 L36.576,6.753744 L31.8096,6.753744 L31.8096,0.864144 C31.8096,0.734544 31.6944,0.619344 31.5648,0.619344 L28.4976,0.619344 C28.368,0.619344 28.2528,0.734544 28.2528,0.864144 L28.2528,16.862544 C28.2528,16.992144 28.3824,17.107344 28.4976,17.107344 L31.5648,17.107344 C31.6944,17.107344 31.8096,16.992144 31.8096,16.862544 L31.8096,10.022544 L36.576,10.022544 L36.5472,16.862544 C36.5472,16.992144 36.6624,17.107344 36.792,17.107344 L39.8592,17.107344 C39.9888,17.107344 40.104,16.992144 40.104,16.862544 L40.104,0.864144 C40.104,0.734544 39.9888,0.619344 39.8592,0.619344 L39.8592,0.619344 Z M12.6864,7.704144 L12.6864,15.969744 C12.6864,16.027344 12.672,16.128144 12.6,16.156944 C12.6,16.156944 10.8,17.438544 7.8336,17.438544 C4.248,17.438544 0,16.315344 0,8.913744 C0,1.512144 3.7152,-0.014256 7.344,0.000144 C10.4832,0.000144 11.7504,0.705744 11.952,0.835344 C12.0096,0.907344 12.0384,0.964944 12.0384,1.036944 L11.4336,3.600144 C11.4336,3.729744 11.304,3.888144 11.1456,3.844944 C10.6272,3.686544 9.8496,3.369744 8.0208,3.369744 C5.904,3.369744 3.6288,3.974544 3.6288,8.740944 C3.6288,13.507344 5.7888,14.068944 7.344,14.068944 C8.6688,14.068944 9.144,13.910544 9.144,13.910544 L9.144,10.598544 L7.0272,10.598544 C6.8688,10.598544 6.7536,10.483344 6.7536,10.353744 L6.7536,7.704144 C6.7536,7.574544 6.8688,7.459344 7.0272,7.459344 L12.4128,7.459344 C12.5712,7.459344 12.6864,7.574544 12.6864,7.704144 L12.6864,7.704144 Z" id="GitHub" fill="#EEF4FC"></path>
                </g>
            </g>
        </g>
    </g>
</svg>
